<?xml version="1.0" encoding="UTF-8"?>
<svg width="48px" height="48px" viewBox="0 0 48 48" version="1.1" xmlns="http://www.w3.org/2000/svg" xmlns:xlink="http://www.w3.org/1999/xlink">
    <!-- Generator: Sketch 54.1 (76490) - https://sketchapp.com -->
    <title>Group</title>
    <desc>Created with Sketch.</desc>
    <g id="Page-1" stroke="none" stroke-width="1" fill="none" fill-rule="evenodd">
        <g id="Jobs-Near-You---Filters-Copy" transform="translate(-201.000000, -324.000000)">
            <g id="Group" transform="translate(201.000000, 324.000000)">
                <rect id="Rectangle" stroke="#EBF0F2" fill="#F8FAFA" x="0.5" y="0.5" width="47" height="47" rx="4"></rect>
                <g id="placeholder" transform="translate(4.000000, 4.000000)" fill-rule="nonzero">
                    <path d="M38.7096774,36.1290323 L38.7096774,18.0645161 L28.3870968,18.0645161 L28.3870968,11.6129032 L22.156949,11.6129032 L21.2903226,12.9032258 L27.0967742,12.9032258 L27.0967742,30.9677419 L22.5806452,30.9677419 L22.5806452,24.516129 L17.4193548,24.516129 L17.4193548,30.9677419 L12.9032258,30.9677419 L12.9032258,12.9032258 L18.6510837,12.9032258 L17.8245585,11.6129032 L11.6129032,11.6129032 L11.6129032,18.0645161 L1.29032258,18.0645161 L1.29032258,36.1290323 L0,36.1290323 L0,40 L40,40 L40,36.1290323 L38.7096774,36.1290323 Z M37.4193548,36.1290323 L36.1290323,36.1290323 L36.1290323,30.9677419 L32.2580645,30.9677419 L32.2580645,36.1290323 L30.9677419,36.1290323 L30.9677419,19.3548387 L37.4193548,19.3548387 L37.4193548,36.1290323 Z M34.8387097,36.1290323 L33.5483871,36.1290323 L33.5483871,32.2580645 L34.8387097,32.2580645 L34.8387097,36.1290323 Z M10.3225806,34.8387097 L29.6774194,34.8387097 L29.6774194,36.1290323 L10.3225806,36.1290323 L10.3225806,34.8387097 Z M29.6774194,19.3548387 L29.6774194,33.5483871 L28.3870968,33.5483871 L28.3870968,19.3548387 L29.6774194,19.3548387 Z M18.7096774,25.8064516 L21.2903226,25.8064516 L21.2903226,30.9677419 L18.7096774,30.9677419 L18.7096774,25.8064516 Z M27.0967742,32.2580645 L27.0967742,33.5483871 L12.9032258,33.5483871 L12.9032258,32.2580645 L27.0967742,32.2580645 Z M11.6129032,33.5483871 L10.3225806,33.5483871 L10.3225806,19.3548387 L11.6129032,19.3548387 L11.6129032,33.5483871 Z M2.58064516,19.3548387 L9.03225806,19.3548387 L9.03225806,36.1290323 L7.74193548,36.1290323 L7.74193548,30.9677419 L3.87096774,30.9677419 L3.87096774,36.1290323 L2.58064516,36.1290323 L2.58064516,19.3548387 Z M6.4516129,36.1290323 L5.16129032,36.1290323 L5.16129032,32.2580645 L6.4516129,32.2580645 L6.4516129,36.1290323 Z M38.7096774,38.7096774 L1.29032258,38.7096774 L1.29032258,37.4193548 L38.7096774,37.4193548 L38.7096774,38.7096774 Z" id="Shape" fill="#90A9AE"></path>
                    <path d="M18.4800277,13.2910156 L15.469065,7.77154742 C15.0567036,7.01549903 14.8387097,6.16053427 14.8387097,5.29989919 L14.8387097,5.16129032 C14.8387097,2.31539823 17.1541079,0 20,0 C22.8458921,0 25.1612903,2.31539823 25.1612903,5.16129032 L25.1612903,5.29989919 C25.1612903,6.16053427 24.9432964,7.01549903 24.530935,7.77154742 L21.5199723,13.2910156 C21.2169229,13.8476563 20.6341356,14.1935484 20,14.1935484 C19.3658644,14.1935484 18.7830771,13.8476563 18.4800277,13.2910156 Z" id="Path" stroke="#90A9AE"></path>
                    <path d="M20,7.74193548 C18.5767389,7.74193548 17.4193548,6.58455145 17.4193548,5.16129032 C17.4193548,3.73802919 18.5767389,2.58064516 20,2.58064516 C21.4232611,2.58064516 22.5806452,3.73802919 22.5806452,5.16129032 C22.5806452,6.58455145 21.4232611,7.74193548 20,7.74193548 Z M20,3.87096774 C19.2883694,3.87096774 18.7096774,4.44965976 18.7096774,5.16129032 C18.7096774,5.87292089 19.2883694,6.4516129 20,6.4516129 C20.7116306,6.4516129 21.2903226,5.87292089 21.2903226,5.16129032 C21.2903226,4.44965976 20.7116306,3.87096774 20,3.87096774 Z" id="Shape" fill="#90A9AE"></path>
                </g>
            </g>
        </g>
    </g>
</svg>