<svg height="506pt" viewBox="-52 0 506 506.71561" width="506pt" xmlns="http://www.w3.org/2000/svg"><path d="m217.660156 152.042969v-8.648438c18.234375-2.976562 32-15.894531 32-31.351562s-13.765625-28.375-32-31.351563v-31.632812c9.203125 2.265625 16 8.175781 16 14.984375h16c0-15.457031-13.765625-28.375-32-31.351563v-8.648437h-16v8.648437c-18.230468 2.976563-32 15.894532-32 31.351563s13.769532 28.375 32 31.351562v31.632813c-9.199218-2.265625-16-8.175782-16-14.984375h-16c0 15.457031 13.769532 28.375 32 31.351562v8.648438zm16-40c0 6.808593-6.796875 12.71875-16 14.984375v-29.96875c9.203125 2.265625 16 8.175781 16 14.984375zm-48-48c0-6.808594 6.800782-12.71875 16-14.984375v29.96875c-9.199218-2.265625-16-8.175782-16-14.984375zm0 0"/><path d="m329.660156 64.042969h16v16h-16zm0 0"/><path d="m329.660156 96.042969h16v16h-16zm0 0"/><path d="m313.660156 80.042969h16v16h-16zm0 0"/><path d="m345.660156 80.042969h16v16h-16zm0 0"/><path d="m73.660156 64.042969h16v16h-16zm0 0"/><path d="m73.660156 96.042969h16v16h-16zm0 0"/><path d="m57.660156 80.042969h16v16h-16zm0 0"/><path d="m89.660156 80.042969h16v16h-16zm0 0"/><path d="m389.292969 239.523438c-15.792969-14.394532-40.117188-13.808594-55.199219 1.328124l-51.152344 51.144532c-16.105468-20.105469-39.640625-32.859375-65.28125-35.367188v-8.585937h48c30.914063-.035157 55.964844-25.085938 56-56v-8h-56c-19.683594.03125-37.910156 10.398437-48 27.304687v-35.710937c46.851563-4.277344 82.050782-44.644531 79.910156-91.640625-2.140624-46.996094-40.863281-83.996094-87.910156-83.996094-47.042968 0-85.765625 37-87.90625 83.996094s33.058594 87.363281 79.90625 91.640625v22.742187c-4.40625-4.054687-10.175781-6.316406-16.167968-6.335937h-31.832032v16c0 13.253906 10.746094 24 24 24h24v24.375c-26.410156 1.714843-50.910156 14.371093-67.589844 34.921875h-10.214843c-6.371094-.015625-12.480469 2.515625-16.96875 7.03125l-32.984375 32.984375-16.976563-16.96875-56.566406 56.570312 135.765625 135.757813 56.570312-56.558594-16.976562-16.976562 17.941406-17.9375c1.507813-1.492188 3.539063-2.335938 5.65625-2.34375h65.929688c6.375.019531 12.496094-2.511719 16.992187-7.03125l84.34375-84.351563c.183594-.183594.441407-.441406.71875-.761719.28125-.316406.570313-.527344.753907-.710937l21.351562-21.351563c8.207031-8.261718 12.695312-19.511718 12.421875-31.152344-.128906-10.667968-4.667969-20.808593-12.535156-28.015624zm-123.632813-39.480469h39.203125c-3.824219 18.613281-20.199219 31.980469-39.203125 32h-39.199218c3.824218-18.613281 20.199218-31.976563 39.199218-32zm-88 16c-4.417968 0-8-3.582031-8-8h15.832032c4.445312.007812 8.070312 3.558593 8.167968 8zm-40-128c0-39.765625 32.238282-72 72-72 39.765625 0 72 32.234375 72 72s-32.234375 72-72 72c-39.746094-.042969-71.953125-32.253907-72-72zm70.601563 184c24.832031.019531 48.238281 11.609375 63.3125 31.34375l-5.441407 5.449219c-7.441406-10.9375-19.816406-17.488282-33.046874-17.496094h-76.894532c14.460938-12.5 32.953125-19.355469 52.070313-19.296875zm-38.191407 178.113281-33.945312 33.933594-113.144531-113.132813 33.945312-33.945312zm208-162.777344-107.199218 107.199219c-1.507813 1.507813-3.550782 2.351563-5.679688 2.34375h-65.875c-6.367187-.015625-12.476562 2.515625-16.964844 7.035156l-17.945312 17.941407-79.199219-79.199219 32.984375-32.984375c1.496094-1.503906 3.53125-2.347656 5.65625-2.34375h109.238282c10.671874.011718 20.054687 7.070312 23.023437 17.320312l.128906.464844c.535157 1.796875.824219 3.65625.863281 5.527344.113282 6.320312-2.351562 12.417968-6.824218 16.886718-4.847656 4.984376-11.496094 7.808594-18.449219 7.839844h-80.664063v16h80.664063c11.265625-.046875 22.035156-4.613281 29.90625-12.671875 7.519531-7.578125 11.621094-17.898437 11.359375-28.574219-.074219-1.714843-.242188-3.425781-.511719-5.121093l72.847657-72.847657c9.039062-9.082031 23.628906-9.433593 33.097656-.800781 4.617187 4.269531 7.261718 10.261719 7.300781 16.554688.167969 7.257812-2.625 14.273437-7.734375 19.429687zm0 0"/><path d="m51.261719 365.300781c-6.25 6.246094-6.25 16.378907-.003907 22.628907 6.25 6.246093 16.382813 6.246093 22.628907 0 6.25-6.25 6.25-16.382813 0-22.628907-6.25-6.246093-16.375-6.246093-22.625 0zm0 0"/></svg>