<svg xmlns="http://www.w3.org/2000/svg" xmlns:xlink="http://www.w3.org/1999/xlink" width="32" height="32" viewBox="0 0 32 32">
  <defs>
    <path id="jobs-near-you-a" d="M14.697401,18.2754558 L17.2310052,23.6523041 L14.3172311,22.3504967 C14.1544788,22.2779883 13.9684974,22.2779883 13.8057451,22.3504967 L9.6,24.2291774 L5.39425492,22.3505466 C5.23150259,22.2780382 5.04552124,22.2780382 4.88276891,22.3505466 L1.96899482,23.652354 L4.5032456,18.2755057 L6.10749016,17.5587057 L7.98128083,20.7095517 C8.32439378,21.2870238 8.92949223,21.6318503 9.6,21.6318503 C10.270458,21.6318503 10.8756062,21.2870238 11.2187192,20.7095517 L13.0925596,17.5587057 L14.697401,18.2754558 Z"/>
    <filter id="jobs-near-you-b" width="106.6%" height="115%" x="-3.3%" y="-7.5%" filterUnits="objectBoundingBox">
      <feOffset dx="-1" dy="1" in="SourceAlpha" result="shadowOffsetInner1"/>
      <feComposite in="shadowOffsetInner1" in2="SourceAlpha" k2="-1" k3="1" operator="arithmetic" result="shadowInnerInner1"/>
      <feColorMatrix in="shadowInnerInner1" values="0 0 0 0 0.155785382   0 0 0 0 0.481961489   0 0 0 0 0.784307065  0 0 0 1 0"/>
    </filter>
    <path id="jobs-near-you-c" d="M16.2652352,7.94792671 C16.2652352,9.01399454 16.0232953,10.0314573 15.5451358,10.9739665 L10.1397886,20.0633637 C9.97449948,20.3407719 9.70744041,20.3710129 9.6,20.3710129 C9.49255959,20.3710129 9.22550052,20.3407719 9.0602114,20.0633637 L3.65486425,10.9739665 C3.17038756,10.0195306 2.92844767,8.9874963 2.93476477,7.90760546 C2.95615337,4.29276569 5.90385078,1.3114885 9.5050943,1.26168577 C11.3041244,1.23773255 13.0001409,1.92049903 14.2801741,3.18697544 C15.5602073,4.45345185 16.2652352,6.14424951 16.2652352,7.94792671 Z M12.467913,7.94792671 C12.467913,6.36117583 11.1816124,5.0706963 9.6,5.0706963 C8.01898446,5.0706963 6.73208705,6.36117583 6.73208705,7.94792671 C6.73208705,9.53407875 8.01898446,10.8251571 9.6,10.8251571 C11.1816124,10.8251571 12.467913,9.53402885 12.467913,7.94792671 Z"/>
    <filter id="jobs-near-you-d" width="107.5%" height="105.2%" x="-3.8%" y="-2.6%" filterUnits="objectBoundingBox">
      <feOffset dx="-1" in="SourceAlpha" result="shadowOffsetInner1"/>
      <feComposite in="shadowOffsetInner1" in2="SourceAlpha" k2="-1" k3="1" operator="arithmetic" result="shadowInnerInner1"/>
      <feColorMatrix in="shadowInnerInner1" values="0 0 0 0 1   0 0 0 0 0.623529412   0 0 0 0 0.325490196  0 0 0 1 0"/>
    </filter>
  </defs>
  <g fill="none" fill-rule="evenodd">
    <rect width="32" height="32"/>
    <g fill-rule="nonzero" transform="translate(6.4 3.2)">
      <path fill="#263838" d="M19.0910674,24.6503049 C19.2035316,24.8885895 19.1557803,25.1716865 18.972286,25.3601684 C18.8516145,25.4843758 18.6882653,25.5499478 18.5229762,25.5499478 C18.4362777,25.5499478 18.3495295,25.5322823 18.2672083,25.4957536 L14.0614632,23.6171228 L9.85571813,25.4957536 C9.6929658,25.568262 9.50698446,25.568262 9.34423212,25.4957536 L5.13848705,23.6171228 L0.932741969,25.4957037 C0.692692228,25.6028943 0.41120829,25.5486503 0.22771399,25.3601684 C0.0442196891,25.1716865 -0.00353160622,24.8885895 0.108932642,24.6503049 L3.46634611,17.525271 C3.53046218,17.3884881 3.6416829,17.2800499 3.77866943,17.2182706 L5.45896788,16.4686846 L2.56464249,11.6018402 C2.5577285,11.5905123 2.55146114,11.5785357 2.54514404,11.5665591 C1.9701886,10.4412569 1.67044974,9.17283431 1.67796062,7.90002027 C1.69054508,5.81648967 2.50868394,3.84768499 3.98220933,2.35734581 C5.45578446,0.866407797 7.41129948,0.0298417154 9.4880829,0.00084834308 C11.6258487,-0.0293925926 13.6410528,0.783819103 15.1623793,2.28927875 C16.6837057,3.7947384 17.5219399,5.80386433 17.5219399,7.94792671 C17.5219399,9.2219883 17.2303585,10.4399595 16.6547565,11.5665591 C16.6484891,11.5785357 16.642172,11.5905123 16.635258,11.6018402 L13.7409326,16.4686846 L15.4111834,17.214478 C15.5507067,17.2737622 15.6663047,17.3827992 15.7335544,17.525271 L19.0910674,24.6503049 Z M17.2310549,23.652354 L14.6974508,18.2755057 L13.0925596,17.5587057 L11.2187192,20.7095517 C10.8756062,21.2870238 10.2705078,21.6318503 9.6,21.6318503 C8.92949223,21.6318503 8.32439378,21.2870238 7.98128083,20.7095517 L6.10744041,17.5587057 L4.50319585,18.2755057 L1.96894508,23.652354 L4.88271917,22.3505466 C5.0454715,22.2780382 5.23145285,22.2780382 5.39420518,22.3505466 L9.6,24.2291774 L13.8057451,22.3505466 C13.9684974,22.2780382 14.1544788,22.2780382 14.3172311,22.3505466 L17.2310549,23.652354 Z M15.545086,10.9739166 C16.0232953,10.0314573 16.2651855,9.01394464 16.2651855,7.9478768 C16.2651855,6.14424951 15.5601575,4.45345185 14.2801244,3.18692554 C13.0000912,1.92039922 11.3041244,1.23768265 9.50504456,1.26163587 C5.90380104,1.3114386 2.95605389,4.29271579 2.93471503,7.90755556 C2.92844767,8.98744639 3.17033782,10.0194807 3.65481451,10.9739166 L9.06016166,20.0633138 C9.22540104,20.340722 9.49250984,20.370963 9.59995026,20.370963 C9.70739067,20.370963 9.97444974,20.340722 10.1397389,20.0633138 L15.545086,10.9739166 Z"/>
      <use fill="#3891E4" xlink:href="#jobs-near-you-a"/>
      <use fill="#000" filter="url(#jobs-near-you-b)" xlink:href="#jobs-near-you-a"/>
      <use fill="#FFC465" xlink:href="#jobs-near-you-c"/>
      <use fill="#000" filter="url(#jobs-near-you-d)" xlink:href="#jobs-near-you-c"/>
      <path fill="#3E4C4C" d="M9.6,5.07064639 C11.1816124,5.07064639 12.467913,6.36112593 12.467913,7.9478768 C12.467913,9.53402885 11.1816124,10.8251072 9.6,10.8251072 C8.01898446,10.8251072 6.73208705,9.53402885 6.73208705,7.9478768 C6.73208705,6.36112593 8.01898446,5.07064639 9.6,5.07064639 Z M11.2111585,7.94792671 C11.2111585,7.05651774 10.4885223,6.33153372 9.6,6.33153372 C8.71207461,6.33153372 7.98884145,7.05651774 7.98884145,7.94792671 C7.98884145,8.83933567 8.71212435,9.56431969 9.6,9.56431969 C10.4885223,9.56431969 11.2111585,8.83933567 11.2111585,7.94792671 Z"/>
      <path fill="#FFF" d="M9.6,6.33148382 C10.4885223,6.33148382 11.2111585,7.05646784 11.2111585,7.9478768 C11.2111585,8.83928577 10.4885223,9.56431969 9.6,9.56431969 C8.71207461,9.56431969 7.98884145,8.83933567 7.98884145,7.94792671 C7.98884145,7.05651774 8.71212435,6.33148382 9.6,6.33148382 Z"/>
    </g>
  </g>
</svg>
