<svg xmlns="http://www.w3.org/2000/svg" width="32" height="32" viewBox="0 0 32 32">
  <g fill="none" fill-rule="evenodd">
    <rect width="32" height="32"/>
    <g fill-rule="nonzero" transform="translate(4.8 4.8)">
      <polygon fill="#F2FDFF" points="22.039 5.815 22.039 22.039 16.619 20.112 15.174 12 16.619 3.888"/>
      <polygon fill="#ABE8F1" points="16.619 3.888 16.619 20.112 11.2 22.039 10.236 13.927 11.2 5.815"/>
      <polygon fill="#F2FDFF" points="11.2 5.815 11.2 22.039 5.781 20.112 4.335 12 5.781 3.888"/>
      <polygon fill="#ABE8F1" points="5.781 3.888 5.781 20.112 .361 22.039 .361 5.815"/>
      <path fill="#FF5D56" d="M18.8044062,5.2560375 C18.8044062,9.17546875 14.3797062,12.8054063 14.3797062,12.8054063 C14.1211875,13.0175063 13.6980813,13.0175063 13.4395187,12.8054063 C13.4395187,12.8054063 9.01481875,9.17546875 9.01481875,5.2560375 C9.01481875,2.552725 11.2063,0.3612875 13.9095688,0.3612875 C16.6128375,0.3612875 18.8044062,2.55276875 18.8044062,5.2560375 Z"/>
      <path fill="#FFF" d="M13.9096125,7.7186375 C12.5517437,7.7186375 11.4470125,6.61390625 11.4470125,5.2560375 C11.4470125,3.89816875 12.5517437,2.79348125 13.9096125,2.79348125 C15.2674813,2.79348125 16.3722125,3.8982125 16.3722125,5.25608125 C16.3722125,6.61395 15.2674812,7.7186375 13.9096125,7.7186375 Z"/>
      <path fill="#424F4F" d="M22.1596813,5.4747875 L20.3949813,4.84736875 C20.2070312,4.78034375 20.0004,4.87869375 19.93355,5.06673125 C19.8667,5.2548125 19.9649187,5.4613125 20.1529125,5.5281625 L21.6773812,6.07018125 L21.6773812,21.52675 L16.9806,19.8568125 L16.9806,12.6670687 C16.9806,12.4674812 16.8188562,12.3057812 16.6193125,12.3057812 C16.4197687,12.3057812 16.258025,12.4674812 16.258025,12.6670687 L16.258025,19.8568125 L11.5612437,21.52675 L11.5612437,12.6672875 C11.5612437,12.4677 11.3995,12.306 11.1999562,12.306 C11.0004125,12.306 10.8386687,12.4677 10.8386687,12.6672875 L10.8386687,21.52675 L6.1418875,19.8568125 L6.1418875,7.2604 C6.1418875,7.0608125 5.98014375,6.8991125 5.7806,6.8991125 C5.58105625,6.8991125 5.4193125,7.0608125 5.4193125,7.2604 L5.4193125,19.8568125 L0.72261875,21.52675 L0.72261875,6.07018125 L5.4194,4.4002 L5.4194,5.81520625 C5.4194,6.01479375 5.58114375,6.17649375 5.7806875,6.17649375 C5.98023125,6.17649375 6.141975,6.01479375 6.141975,5.81520625 L6.141975,4.4002 L7.48960625,4.87930625 C7.6776,4.94633125 7.88423125,4.84798125 7.9510375,4.65994375 C8.0178875,4.47195 7.91966875,4.2653625 7.731675,4.1985125 L5.9017875,3.54790625 C5.9007375,3.5475125 5.8996,3.547425 5.89859375,3.54703125 C5.8813125,3.5410375 5.86341875,3.53635625 5.8450875,3.53303125 C5.84233125,3.53255 5.839575,3.5322 5.83690625,3.5317625 C5.81861875,3.528875 5.7999375,3.52695 5.780775,3.52695 L5.780775,3.52695 L5.7806875,3.52695 C5.76156875,3.52695 5.742975,3.528875 5.72464375,3.53171875 C5.72184375,3.53215625 5.7190875,3.53250625 5.716375,3.5329875 C5.69804375,3.5363125 5.68019375,3.5410375 5.6629125,3.5469875 C5.6618625,3.54738125 5.660725,3.54746875 5.65971875,3.5478625 L0.24031875,5.47474375 C0.09629375,5.52593125 8.75e-05,5.66225625 8.75e-05,5.81511875 L8.75e-05,22.0386687 C8.75e-05,22.1560937 0.0571375,22.2661687 0.1530375,22.33385 C0.24898125,22.4014875 0.37183125,22.41855 0.4823875,22.3790437 L5.7806875,20.4952125 L11.0789875,22.3790437 C11.0800375,22.3794375 11.081175,22.379525 11.082225,22.3799187 C11.0995063,22.3859125 11.1173563,22.3905937 11.1356875,22.393875 C11.1384438,22.3944 11.1412438,22.39475 11.1439563,22.3951437 C11.1622438,22.3980312 11.180925,22.3999562 11.2000438,22.3999562 C11.2191625,22.3999562 11.2378,22.3980312 11.2561312,22.3951437 C11.2588875,22.3947062 11.2616875,22.3943562 11.2644,22.393875 C11.2827312,22.3905937 11.3005813,22.3858687 11.3178625,22.3799187 C11.3189125,22.379525 11.32005,22.3794375 11.3211,22.3790437 L16.6194,20.4952125 L21.9177,22.3790437 C21.9571187,22.3930437 21.9979812,22.3999562 22.0387125,22.3999562 C22.1123875,22.3999562 22.1853187,22.377425 22.24705,22.33385 C22.34295,22.2661687 22.4,22.1560937 22.4,22.0386687 L22.4,5.81520625 C22.3999563,5.66234375 22.3037063,5.525975 22.1596813,5.4747875 Z"/>
      <path fill="#424F4F" d="M13.2104,13.0847062 C13.4064438,13.2456188 13.6580063,13.3259875 13.9096563,13.3259875 C14.1612188,13.3259875 14.4128688,13.2455313 14.6088688,13.08475 C14.6552438,13.0466875 15.7579188,12.1363375 16.8753375,10.7247438 C18.395125,8.8048625 19.16565,6.96486875 19.16565,5.25608125 C19.1656938,2.35781875 16.8078313,0 13.9096563,0 C11.0114813,0 8.653575,2.35781875 8.653575,5.2560375 C8.653575,6.96486875 9.4241875,8.80481875 10.9439313,10.7247 C12.06135,12.1363375 13.164025,13.0466438 13.2104,13.0847062 Z M13.9096563,0.722575 C16.4094438,0.722575 18.4431188,2.75629375 18.4431188,5.2560375 C18.4431188,8.956325 14.193375,12.4908875 14.1505438,12.5261062 C14.0243688,12.6294875 13.794725,12.629575 13.6687688,12.52615 C13.62585,12.4908875 9.37610625,8.95636875 9.37610625,5.2560375 C9.37615,2.75629375 11.4098688,0.722575 13.9096563,0.722575 Z"/>
      <path fill="#424F4F" d="M16.7335,5.2560375 C16.7335,3.69893125 15.4667188,2.43215 13.9096125,2.43215 C12.3525062,2.43215 11.085725,3.69893125 11.085725,5.2560375 C11.085725,6.81314375 12.3525062,8.079925 13.9096125,8.079925 C15.4667188,8.079925 16.7335,6.8131875 16.7335,5.2560375 Z M11.8083,5.2560375 C11.8083,4.0973625 12.7509375,3.154725 13.9096125,3.154725 C15.0682438,3.154725 16.010925,4.0973625 16.010925,5.2560375 C16.010925,6.4147125 15.0682875,7.35735 13.9096125,7.35735 C12.7509813,7.35735 11.8083,6.4147125 11.8083,5.2560375 Z"/>
    </g>
  </g>
</svg>
