<svg xmlns="http://www.w3.org/2000/svg" width="32" height="32" viewBox="0 0 32 32">
  <g fill="none" fill-rule="evenodd">
    <rect width="32" height="32"/>
    <g transform="translate(3.2 3.2)">
      <path fill="#B2DFDB" d="M22.67205,6.8774651 C22.67205,7.19706353 22.6485,7.51209412 22.60385,7.81964549 C22.3973,9.23191216 21.73405,10.5001663 20.7705,11.4669929 C19.5974,12.6451953 17.9796,13.376 16.1994,13.376 L8.1631,13.376 L6.1217,17.994742 C5.5878,19.2031624 3.788,18.8206682 3.788,17.4980016 L3.788,12.5979106 C1.76115,11.497211 0.376,9.34209255 0.376,6.8774651 C0.376,5.09078588 1.10395,3.46613961 2.27755,2.28843922 C2.69665,1.86769569 3.1729,1.50382431 3.6928,1.20987608 C4.6278,0.681411765 5.70465,0.379432157 6.84865,0.379432157 L16.1994,0.379432157 C19.75935,0.379432157 22.67205,3.30360471 22.67205,6.8774651 Z"/>
      <path fill="#F2FDFF" fill-rule="nonzero" d="M22.67205,6.8774651 C22.67205,7.19706353 22.6485,7.51209412 22.60385,7.81964549 C20.578,9.57465098 17.9395,10.6355953 15.05335,10.6355953 C9.4099,10.6355953 4.71095,6.57754353 3.69275,1.20992627 C4.62775,0.681461961 5.7046,0.379482353 6.8486,0.379482353 L16.19935,0.379482353 C19.75935,0.379432157 22.67205,3.30360471 22.67205,6.8774651 Z"/>
      <path fill="#2D9EA2" fill-rule="nonzero" d="M9.11965,5.79689412 L9.11965,10.9068549 C9.11965,11.3417035 8.7652,11.6970416 8.33205,11.6970416 L6.8441,11.6970416 C6.47665,11.6970416 6.17885,11.3980737 6.17885,11.0291827 L6.17885,5.67461647 C6.17885,5.30572549 6.47665,5.00675765 6.8441,5.00675765 L8.33205,5.00675765 C8.7652,5.00675765 9.11965,5.36204549 9.11965,5.79689412 Z"/>
      <path fill="#3DC1A6" fill-rule="nonzero" d="M9.11965,5.79689412 L9.11965,10.5268706 L8.3145,10.5268706 C7.94705,10.5268706 7.64925,10.2279027 7.64925,9.85901176 L7.64925,5.00675765 L8.33205,5.00675765 C8.7652,5.00675765 9.11965,5.36204549 9.11965,5.79689412 Z"/>
      <path fill="#E3A76F" fill-rule="nonzero" d="M16.8692,6.78791529 L16.8692,9.67936 C16.8692,10.1871937 16.70025,10.657782 16.416,11.0362604 C16.0039,11.5843514 15.3502,11.9401914 14.61725,11.9401914 L10.18,11.9401914 C9.59695,11.9401914 9.1197,11.4610698 9.1197,10.8757333 L9.1197,5.97514039 C9.1197,5.38980392 9.59695,4.91068235 10.18,4.91068235 L11.14655,4.91068235 C11.2398,4.91068235 11.32855,4.86891922 11.3877,4.79643608 L13.6622,2.03991843 C14.05275,1.56380863 14.74655,1.44906039 15.2504,1.80234039 C15.8134,2.19743373 15.91315,2.98962824 15.4845,3.51201882 L14.75505,4.40084078 C14.5911,4.60619294 14.737,4.91068235 14.9992,4.91068235 C15.51555,4.91068235 15.9833,5.12105412 16.3212,5.46027922 C16.6601,5.80045804 16.8692,6.2694902 16.8692,6.78791529 Z"/>
      <path fill="#FF9F53" d="M24.26775,22.0684047 C23.50425,23.3331953 22.31205,24.3468047 20.8096,24.8642259 C17.4041,26.0379106 13.69525,24.2174996 12.52615,20.7980925 C11.531,17.8865192 12.6986,14.753531 15.17065,13.1636204 C15.6013,12.886789 16.07105,12.6567906 16.57635,12.4826604 C19.98235,11.3089757 23.6907,13.1293867 24.8598,16.5487937 C25.51305,18.4597584 25.23485,20.4658949 24.26775,22.0684047 Z"/>
      <path fill="#FFC465" d="M24.26775,22.0684047 C23.8371,22.345738 23.36685,22.5757365 22.86155,22.7498667 C19.45555,23.9235514 15.7472,22.1031404 14.5781,18.6842353 C13.92435,16.7727184 14.2031,14.766582 15.17065,13.1636204 C15.6013,12.886789 16.07105,12.6567906 16.57635,12.4826604 C19.98235,11.3089757 23.6907,13.1293867 24.8598,16.5487937 C25.51305,18.4597584 25.23485,20.4658949 24.26775,22.0684047 Z"/>
      <path fill="#F2BB88" fill-rule="nonzero" d="M16.8692,6.78791529 L16.8692,9.67936 C16.8692,10.1871937 16.70025,10.657782 16.416,11.0362604 C13.3268,10.6009098 10.9099,8.06329725 10.6462,4.91068235 L11.1465,4.91068235 C11.23975,4.91068235 11.3285,4.86891922 11.38765,4.79643608 L13.66215,2.03991843 C14.0527,1.56380863 14.7465,1.44906039 15.25035,1.80234039 C15.81335,2.19743373 15.9131,2.98962824 15.48445,3.51201882 L14.755,4.40084078 C14.59105,4.60619294 14.73695,4.91068235 14.99915,4.91068235 C15.5155,4.91068235 15.98325,5.12105412 16.32115,5.46027922 C16.6601,5.80045804 16.8692,6.2694902 16.8692,6.78791529 Z"/>
      <path fill="#263838" fill-rule="nonzero" d="M16.13625,2.55116549 C15.94965,1.18091294 14.2308,0.713637647 13.3534,1.78261333 L11.10495,4.50795922 L10.18,4.50795922 C9.77895,4.50795922 9.4155,4.67054431 9.1518,4.93372235 C8.93825,4.72987608 8.64995,4.60408471 8.33215,4.60408471 L6.8442,4.60408471 C6.25615,4.60408471 5.7779,5.0842102 5.7779,5.67456627 L5.7779,11.0291325 C5.7779,11.6194886 6.25615,12.0996141 6.8442,12.0996141 L8.33215,12.0996141 C8.6139,12.0996141 8.8726,12.0009788 9.0766,11.835382 C9.3438,12.1458949 9.73935,12.3427137 10.18,12.3427137 L14.61725,12.3427137 C16.0801,12.3427137 17.2703,11.1478965 17.2703,9.67925961 L17.2703,6.7878149 C17.2703,5.59199373 16.34835,4.60855216 15.18075,4.51543843 L15.79435,3.76756706 C16.07105,3.4304 16.1959,2.98701804 16.13625,2.55116549 Z M8.7186,10.9068549 C8.7186,11.1207404 8.54515,11.2943686 8.3321,11.2943686 L6.84415,11.2943686 C6.69875,11.2943686 6.57995,11.1756047 6.57995,11.0291325 L6.57995,5.67461647 C6.57995,5.52814431 6.69875,5.40938039 6.84415,5.40938039 L8.3321,5.40938039 C8.54515,5.40938039 8.7186,5.58300863 8.7186,5.79689412 C8.7186,7.4380549 8.7186,9.3133302 8.7186,10.9068549 Z M15.1752,3.25576784 L14.44575,4.1445898 C14.29565,4.29527843 14.22215,4.62762667 14.356,4.90706824 C14.4758,5.15769725 14.72245,5.31320471 14.9992,5.31320471 C15.80885,5.31320471 16.4681,5.97504 16.4681,6.7878651 L16.4681,9.6793098 C16.4681,10.7040125 15.6379,11.5374682 14.6172,11.5374682 L10.17995,11.5374682 C9.8165,11.5374682 9.5207,11.2405082 9.5207,10.8756329 L9.5207,5.97504 C9.5207,5.61016471 9.8165,5.31320471 10.17995,5.31320471 L11.1465,5.31320471 C11.36055,5.31320471 11.5611,5.21808314 11.69645,5.05298824 L13.972,2.29546667 C14.40805,1.76308706 15.24925,1.98580706 15.34165,2.66034196 C15.3707,2.87427765 15.31005,3.0912251 15.1752,3.25576784 Z"/>
      <path fill="#263838" fill-rule="nonzero" stroke="#3E4C4C" stroke-width=".1" d="M3.41205,14.7429396 C3.41205,14.9518055 3.5805,15.1204141 3.78805,15.1204141 C3.9961,15.1204141 4.16405,14.9518055 4.16405,14.7429396 L4.16405,12.5979106 C4.16405,12.45952 4.08835,12.3316706 3.96705,12.2657129 C1.9838,11.1891576 0.75205,9.12414118 0.75205,6.8774651 C0.75205,3.50288314 3.4868,0.756906667 6.8487,0.756906667 L16.19945,0.756906667 C20.896,0.756906667 23.8202,5.89131294 21.4729,9.93947608 C21.3681,10.1191278 21.4293,10.3506824 21.60825,10.4553412 C21.7877,10.5600502 22.01835,10.4991122 22.1226,10.3189584 C24.7576,5.77937569 21.4838,0.00200784314 16.1994,0.00200784314 L6.84865,0.00200784314 C3.07215,0.00200784314 0,3.08615529 0,6.8774651 C0,9.32648157 1.30145,11.5822431 3.41205,12.8188235 L3.41205,14.7429396 Z"/>
      <path fill="#263838" fill-rule="nonzero" stroke="#263838" stroke-width=".1" d="M25.20875,16.4073412 C25.13155,16.2140863 24.91245,16.1199686 24.71995,16.1974714 C24.53345,16.2719624 24.4397,16.4798243 24.5034,16.6685616 C24.5039,16.6690635 24.5039,16.6700675 24.5044,16.6710714 C25.60505,19.8887906 23.90175,23.3997051 20.6878,24.5073318 C17.48915,25.6100894 13.98795,23.9102494 12.88215,20.6757647 C11.32805,16.1325176 15.32575,11.6649161 19.9313,12.6331482 C21.5511,12.9723733 23.00495,13.9648502 23.8953,15.3891639 C24.0056,15.565302 24.2377,15.6186604 24.41365,15.5079278 C24.5896,15.3971953 24.64275,15.1641851 24.53195,14.9875451 C23.6617,13.5956078 22.3059,12.5421427 20.6988,12.0498196 C20.86325,11.9063592 21.02065,11.7543655 21.17155,11.5943404 C21.31445,11.4428486 21.3074,11.2042667 21.1565,11.0608565 C21.0056,10.9173961 20.76795,10.9244737 20.6251,11.0759655 C20.3604,11.3568125 20.07165,11.6104533 19.7628,11.8334243 C17.9573,11.5480094 16.16205,12.0024345 14.743,12.9985255 L8.1631,12.9985255 C8.0142,12.9985255 7.87935,13.0861176 7.8192,13.2225004 L5.7783,17.8412424 C5.40595,18.6836831 4.164,18.4072533 4.164,17.4980016 L4.164,16.2528376 C4.164,16.0444737 3.99605,15.8753631 3.788,15.8753631 C3.58045,15.8753631 3.412,16.0444737 3.412,16.2528376 L3.412,17.4980016 C3.412,19.2065757 5.76,19.7418667 6.4656,18.1477396 L8.40725,13.7534745 L13.84065,13.7534745 C11.9762,15.6069145 11.301,18.3788424 12.17075,20.9208722 C13.1273,23.7187012 15.7482,25.5979922 18.6925,25.5979922 C23.50135,25.5979922 26.76305,20.7832345 25.20875,16.4073412 Z"/>
      <ellipse cx="17.265" cy="15.932" fill="#263838" fill-rule="nonzero" rx="1" ry="1"/>
      <ellipse cx="20.121" cy="15.932" fill="#263838" fill-rule="nonzero" rx="1" ry="1"/>
      <path fill="#263838" fill-rule="nonzero" d="M15.70595,17.3073067 C15.70595,17.0988424 15.53765,16.9298322 15.32995,16.9298322 C15.12225,16.9298322 14.95395,17.0988424 14.95395,17.3073067 C14.95395,19.377142 16.63135,21.0610698 18.6931,21.0610698 C20.75485,21.0610698 22.43225,19.377142 22.43225,17.3073067 C22.43225,17.0988424 22.26395,16.9298322 22.05625,16.9298322 C21.84855,16.9298322 21.68025,17.0988424 21.68025,17.3073067 C21.68025,18.9608659 20.34025,20.3061208 18.6931,20.3061208 C17.04595,20.3061208 15.70595,18.9608659 15.70595,17.3073067 Z"/>
    </g>
  </g>
</svg>
